<?xml version="1.0" encoding="utf-8"?>
<svg version="1.1" id="Layer_1" xmlns="http://www.w3.org/2000/svg" x="0px" y="0px" width="100%" viewBox="0 0 5000 5000" enable-background="new 0 0 5000 5000">
  <path opacity="1.000000" stroke="none" d=" M2559.061279,2487.443604 C2524.083252,2517.084717 2489.005615,2546.609619 2454.152100,2576.396240 C2408.091309,2615.760742 2362.175781,2655.295898 2316.261475,2694.831787 C2301.149170,2707.844482 2286.234619,2721.086426 2270.428467,2734.924561 C2273.187256,2739.105225 2275.263184,2743.185303 2278.180664,2746.532227 C2319.756104,2794.221924 2361.337891,2841.906738 2403.140869,2889.396729 C2435.706787,2926.392822 2468.780518,2962.941895 2501.276367,2999.998535 C2562.730225,3070.076904 2623.882324,3140.419189 2685.254883,3210.568848 C2722.957764,3253.664307 2760.859375,3296.585938 2798.631592,3339.620605 C2848.698730,3396.663574 2898.691406,3453.771484 2948.786133,3510.790039 C2978.231934,3544.305664 3007.934570,3577.596680 3037.310059,3611.173828 C3092.112549,3673.813721 3146.670654,3736.667236 3201.510498,3799.274414 C3230.475342,3832.342041 3259.954346,3864.958740 3288.956543,3897.993896 C3319.712402,3933.026123 3350.093018,3968.387695 3380.792236,4003.469727 C3419.380615,4047.566895 3458.158691,4091.497803 3496.796387,4135.552246 C3542.904785,4188.124023 3588.961182,4240.740723 3635.001709,4293.372070 C3638.002930,4296.802734 3641.710449,4300.127930 3639.066162,4307.205078 C3636.994629,4307.653320 3634.010498,4308.679688 3630.974121,4308.871094 C3625.659912,4309.205566 3620.313965,4309.058594 3614.981201,4309.058594 C3302.318848,4309.068359 2989.656250,4309.072754 2676.993896,4309.077148 C2675.660645,4309.077148 2674.327393,4309.078613 2672.994141,4309.077148 C2644.796143,4309.043945 2650.742432,4309.491211 2634.030762,4291.322266 C2591.654053,4245.250977 2549.305420,4199.153320 2507.023438,4152.994629 C2473.280029,4116.156738 2439.724609,4079.146973 2405.952881,4042.335449 C2372.633789,4006.017334 2339.101807,3969.894287 2305.747314,3933.608154 C2271.942871,3896.832031 2238.304688,3859.903076 2204.475098,3823.149902 C2172.897217,3788.843262 2141.067383,3754.768311 2109.527100,3720.427002 C2079.344727,3687.564697 2049.485840,3654.405518 2019.317139,3621.530273 C1975.631348,3573.924805 1931.749634,3526.499268 1888.034424,3478.920654 C1839.355835,3425.939697 1790.747070,3372.894287 1742.154175,3319.834717 C1719.667480,3295.280273 1697.318115,3270.600342 1674.830933,3246.046631 C1671.728271,3242.658691 1668.188599,3239.670898 1663.883179,3235.577393 C1641.920044,3252.249512 1622.110474,3270.780518 1601.499878,3288.330078 C1580.201782,3306.464600 1558.875366,3324.565918 1537.619995,3342.750244 C1516.866333,3360.505615 1496.174927,3378.333984 1475.478394,3396.156250 C1454.780762,3413.979004 1434.106445,3431.828857 1413.429321,3449.675537 C1392.746338,3467.526855 1372.118896,3485.442627 1351.381592,3503.230469 C1330.145752,3521.445801 1308.789062,3539.519775 1287.516846,3557.692627 C1266.752808,3575.430908 1246.002686,3593.186035 1225.293579,3610.988281 C1204.589478,3628.786377 1183.949829,3646.659180 1163.269897,3664.485352 C1142.595093,3682.307129 1121.924805,3700.134277 1101.216553,3717.916992 C1080.015625,3736.122803 1058.779297,3754.287354 1037.543091,3772.452148 C1016.790527,3790.202881 995.970459,3807.875000 975.268982,3825.685059 C954.574768,3843.488770 934.031372,3861.467529 913.346436,3879.282227 C892.661865,3897.095703 871.862793,3914.776367 851.152588,3932.560059 C829.949036,3950.768066 808.820679,3969.063721 787.606567,3987.259033 C766.891907,4005.026367 746.086548,4022.687744 725.365723,4040.447754 C704.631042,4058.219482 683.940857,4076.043213 663.251404,4093.867432 C642.562805,4111.691406 621.933289,4129.584473 601.214966,4147.373535 C579.987244,4165.600586 558.675293,4183.728516 537.414856,4201.916992 C516.660767,4219.672852 496.031281,4237.576172 475.151306,4255.182129 C454.457336,4272.631348 434.687592,4291.228516 413.797180,4307.637207 C407.231995,4302.829590 406.983795,4297.462891 406.939362,4292.123535 C406.839722,4280.146484 406.866394,4268.168945 406.866333,4256.191406 C406.864807,3946.195557 406.865814,3636.199951 406.868500,3326.204102 C406.868744,3298.073242 406.972839,3298.191650 428.243958,3280.670898 C498.167053,3223.076904 567.963074,3165.328857 637.902039,3107.754150 C715.548523,3043.834473 793.351562,2980.104736 870.986389,2916.170898 C934.221191,2864.095703 997.297546,2811.828125 1060.463623,2759.669434 C1132.357422,2700.303711 1204.212769,2640.890869 1276.197021,2581.635010 C1340.447144,2528.745850 1404.905518,2476.109619 1469.170288,2423.237793 C1532.409424,2371.209961 1595.527954,2319.035156 1658.686890,2266.909912 C1764.452148,2179.621094 1870.163940,2092.267578 1975.979736,2005.040283 C2071.546387,1926.261108 2167.251465,1847.650269 2262.840576,1768.898071 C2347.659912,1699.018555 2432.389404,1629.029541 2517.188721,1559.125854 C2541.843994,1538.801392 2566.601318,1518.600342 2591.320801,1498.353638 C2594.266602,1495.940674 2596.650879,1493.148804 2600.885010,1488.333130 C2568.790039,1486.578369 2539.708740,1488.442627 2510.677979,1487.734619 C2481.362549,1487.019653 2452.016113,1487.579590 2422.683105,1487.579468 C2393.350098,1487.579468 2364.017334,1487.577148 2334.684326,1487.576538 C2305.351318,1487.576050 2276.018555,1487.576416 2246.685547,1487.576416 C2218.019287,1487.576416 2189.353027,1487.576416 2160.686768,1487.576416 C2131.353760,1487.576416 2102.020996,1487.576416 2072.687988,1487.576416 C2043.354980,1487.576416 2014.022095,1487.576416 1984.689087,1487.576416 C1955.356201,1487.576416 1926.023193,1487.576416 1896.690308,1487.576416 C1867.357422,1487.576416 1838.024414,1487.576416 1808.691528,1487.576416 C1779.358643,1487.576416 1750.025635,1487.576416 1720.692749,1487.576416 C1691.359741,1487.576416 1662.026855,1487.576416 1632.693848,1487.576416 C1603.360962,1487.576416 1574.027954,1487.576416 1544.695068,1487.576416 C1516.028809,1487.576416 1487.362549,1487.576416 1458.696289,1487.576416 C1429.363403,1487.576416 1400.030396,1487.576416 1370.697510,1487.576416 C1341.364624,1487.576416 1312.031616,1487.576416 1282.698730,1487.576416 C1253.406860,1487.576416 1224.114990,1487.576416 1194.164551,1487.576416 C1193.230713,1490.632690 1191.862061,1493.023315 1191.865234,1495.411987 C1191.920654,1538.071289 1192.293701,1580.730347 1192.302856,1623.389526 C1192.348145,1834.053345 1192.342896,2044.717041 1192.249390,2255.380859 C1192.237671,2281.722900 1195.222656,2276.329834 1174.041870,2293.678467 C1082.314575,2368.810303 990.510620,2443.848145 898.667297,2518.837891 C832.645630,2572.744385 766.452820,2626.441162 700.456604,2680.378662 C642.189331,2727.999512 584.095703,2775.832764 525.910950,2823.554932 C492.430450,2851.015137 458.922028,2878.441406 425.423035,2905.878906 C423.364990,2907.564697 421.381805,2909.368652 419.184784,2910.852295 C413.943878,2914.392090 407.819580,2911.705811 407.737946,2905.428223 C407.365540,2876.795166 407.256989,2848.158203 407.167480,2819.522217 C407.146698,2812.867676 407.763855,2806.211914 407.764862,2799.556641 C407.798340,2578.226318 407.893036,2356.896240 407.771088,2135.565918 C407.535309,1707.587158 407.172546,1279.608398 406.868439,851.629639 C406.847137,821.651611 406.555481,791.668457 407.032959,761.697937 C407.231995,749.207397 409.117615,736.743774 410.343292,723.075317 C416.527618,722.397766 421.598938,721.374451 426.673126,721.360413 C466.001587,721.251221 505.330536,721.359924 544.659363,721.358826 C1377.314331,721.335754 2209.969238,721.302124 3042.624268,721.289001 C3111.951416,721.287903 3181.279297,721.659607 3250.605469,721.424683 C3332.573486,721.146973 3414.540039,720.427124 3496.506592,719.833679 C3517.827393,719.679382 3539.197510,720.126953 3560.457520,718.848145 C3643.710205,713.840576 3727.022705,717.942871 3810.290039,716.484497 C3828.243896,716.170105 3846.170410,714.510498 3864.123779,713.863464 C3878.100342,713.359741 3892.098877,713.325989 3906.087646,713.325928 C3965.411133,713.325745 4024.735352,713.641113 4084.057861,713.420471 C4172.022949,713.093262 4259.987793,712.494873 4347.950684,711.772339 C4359.221191,711.679810 4370.474609,709.488586 4381.745117,709.399780 C4443.727051,708.911133 4505.712891,708.877563 4567.696289,708.483704 C4617.667969,708.166016 4667.637207,707.526428 4717.608887,707.124573 C4723.414062,707.077881 4729.224609,707.637146 4734.158691,707.873657 C4737.149902,712.804016 4735.454590,715.504089 4732.691895,717.729370 C4722.321289,726.082520 4711.968262,734.461487 4701.461426,742.641174 C4619.500000,806.449402 4537.526367,870.242188 4455.509766,933.980408 C4406.611328,971.981567 4357.575195,1009.806335 4308.700195,1047.838867 C4266.656250,1080.556152 4224.823242,1113.544800 4182.770020,1146.250610 C4133.367676,1184.672363 4083.783203,1222.859009 4034.364502,1261.259644 C3994.930420,1291.901855 3955.630371,1322.716309 3916.264160,1353.446167 C3866.414551,1392.358887 3816.567139,1431.274414 3766.702881,1470.168579 C3710.023438,1514.378662 3653.343018,1558.588135 3596.629150,1602.754639 C3567.735352,1625.255981 3538.305176,1647.096313 3509.949951,1670.254517 C3474.878662,1698.898438 3440.523193,1728.427612 3406.121338,1757.881836 C3334.775879,1818.966309 3263.604492,1880.254028 3190.379883,1942.828125 C3180.609619,1946.694336 3174.490234,1951.702026 3168.398926,1956.952393 C3140.149170,1981.300537 3111.704346,2005.422119 3083.432617,2029.744751 C2941.056641,2152.233643 2798.712646,2274.759766 2656.357422,2397.272705 C2628.087891,2421.601562 2599.776855,2445.882568 2571.583496,2470.299316 C2566.154297,2475.001465 2559.411865,2478.945801 2559.061279,2487.443604 z" style="fill: rgb(3, 3, 3);"/>
  <path opacity="1.000000" stroke="none" d=" M2560.275879,2488.150391 C2559.411865,2478.945801 2566.154297,2475.001465 2571.583496,2470.299316 C2599.776855,2445.882568 2628.087891,2421.601562 2656.357422,2397.272705 C2798.712646,2274.759766 2941.056641,2152.233643 3083.432617,2029.744751 C3111.704346,2005.422119 3140.149170,1981.300537 3168.398926,1956.952393 C3174.490234,1951.702026 3180.609619,1946.694336 3189.706055,1944.031738 C3191.323242,1950.106934 3193.736572,1955.207031 3198.079102,1959.877441 C3213.485352,1976.447632 3228.729492,1993.174316 3243.759521,2010.086670 C3259.660889,2027.979980 3275.106934,2046.277832 3291.012451,2064.167480 C3305.605957,2080.582031 3320.678467,2096.570557 3335.300781,2112.960205 C3353.898682,2133.804932 3372.256104,2154.864502 3390.715576,2175.832520 C3400.829346,2187.320312 3410.826416,2198.913330 3421.077881,2210.276855 C3437.575439,2228.563965 3454.396973,2246.560059 3470.800049,2264.930908 C3500.933350,2298.679199 3530.815186,2332.651611 3560.896240,2366.446533 C3575.058594,2382.357422 3589.570312,2397.958496 3603.686768,2413.909180 C3619.561035,2431.845703 3635.098145,2450.079834 3650.914307,2468.068359 C3663.214355,2482.058105 3675.641357,2495.938232 3688.145508,2509.746338 C3718.079834,2542.802734 3748.299805,2575.602783 3778.009521,2608.858887 C3802.377197,2636.135742 3826.115234,2663.974365 3850.250732,2691.459961 C3862.550293,2705.466064 3875.049561,2719.298096 3887.566406,2733.111084 C3905.001465,2752.351074 3922.702637,2771.352539 3939.972412,2790.739258 C3951.471436,2803.647461 3962.369385,2817.090088 3973.636230,2830.207764 C3977.540283,2834.752441 3981.813232,2838.978027 3985.802734,2843.451904 C4006.171631,2866.292725 4026.469482,2889.197510 4046.859375,2912.019531 C4060.610352,2927.410645 4074.450684,2942.721680 4088.290771,2958.032715 C4115.965332,2988.648438 4143.759277,3019.157227 4171.328613,3049.867432 C4192.212402,3073.130127 4212.908691,3096.563721 4233.539062,3120.052246 C4258.555664,3148.535400 4283.278809,3177.277588 4308.394043,3205.673096 C4323.826660,3223.122559 4339.888184,3240.014404 4355.427246,3257.371826 C4374.065430,3278.190918 4392.425293,3299.259277 4410.949707,3320.180664 C4421.981445,3332.639893 4433.030273,3345.085693 4444.192383,3357.427979 C4460.712402,3375.694092 4477.484863,3393.733887 4493.882324,3412.108887 C4510.261719,3430.463867 4526.286133,3449.136475 4542.523926,3467.618652 C4546.921875,3472.624023 4551.624512,3477.362305 4556.026367,3482.364258 C4571.405273,3499.838135 4586.687500,3517.396973 4602.056641,3534.879150 C4613.479492,3547.872803 4624.868652,3560.899414 4636.473633,3573.729004 C4653.889648,3592.982910 4671.632812,3611.942871 4688.956055,3631.278564 C4705.821777,3650.103760 4722.264648,3669.307617 4739.040527,3688.214111 C4745.230957,3695.190430 4752.036133,3701.623535 4758.186035,3708.632812 C4761.621582,3712.547607 4764.288086,3717.136719 4766.257812,3724.041992 C4764.796387,3733.935059 4764.017578,3741.208008 4764.014160,3748.481445 C4763.944336,3895.752441 4763.939453,4043.023438 4763.981445,4190.294434 C4763.992188,4228.275391 4764.207031,4266.256836 4764.328125,4304.237793 C4764.328125,4304.237793 4764.048340,4304.084961 4762.257812,4304.099121 C4580.124023,4304.072754 4399.780762,4304.026855 4219.437012,4304.005859 C4207.460449,4304.004395 4195.483398,4304.189941 4183.506836,4304.288086 C4176.687012,4297.074707 4169.831055,4289.895020 4163.062988,4282.633301 C4159.432129,4278.737793 4155.934082,4274.718262 4152.408691,4270.725586 C4133.919922,4249.784180 4115.442383,4228.833008 4096.956543,4207.889648 C4096.074707,4206.890625 4095.146240,4205.932617 4094.244385,4204.951660 C4074.428223,4183.395020 4054.414062,4162.014648 4034.864014,4140.218750 C4020.668701,4124.392578 4007.209961,4107.908203 3993.195557,4091.916016 C3980.916260,4077.904297 3968.332275,4064.159180 3955.862061,4050.315186 C3928.705078,4020.166992 3901.460205,3990.097656 3874.389893,3959.872070 C3842.431641,3924.189209 3810.648926,3888.349609 3778.736572,3852.625732 C3754.362793,3825.340820 3729.763672,3798.255859 3705.523926,3770.852783 C3680.406982,3742.458008 3655.725098,3713.678711 3630.616455,3685.276611 C3615.192871,3667.829590 3599.177979,3650.906250 3583.699707,3633.506836 C3568.231201,3616.119141 3553.177490,3598.363037 3537.783936,3580.907959 C3531.616699,3573.915771 3524.852783,3567.450684 3518.664795,3560.475830 C3502.333496,3542.066406 3486.175537,3523.503662 3469.929443,3505.018555 C3467.732178,3502.518066 3465.392578,3500.143066 3463.175049,3497.659668 C3440.577637,3472.354492 3418.055908,3446.981445 3395.381592,3421.745605 C3379.364258,3403.918213 3363.007812,3386.394043 3347.054443,3368.510010 C3332.007812,3351.642578 3317.326172,3334.449951 3302.416748,3317.459473 C3291.007324,3304.457520 3279.609131,3291.442627 3268.001709,3278.618408 C3238.081787,3245.561279 3207.953613,3212.692627 3178.093506,3179.581787 C3156.708252,3155.868896 3135.644775,3131.865723 3114.395020,3108.030273 C3091.378906,3082.214111 3068.273926,3056.476807 3045.278320,3030.642090 C3013.873535,2995.360596 2982.552002,2960.005127 2951.163818,2924.708740 C2918.893066,2888.420410 2886.595947,2852.155762 2854.290527,2815.898438 C2832.156982,2791.057617 2810.013916,2766.225342 2787.830566,2741.428955 C2764.319092,2715.147949 2740.689209,2688.972412 2717.229004,2662.645508 C2686.693359,2628.378418 2656.202148,2594.070801 2625.833984,2559.655273 C2609.997559,2541.708496 2594.603760,2523.370850 2578.719727,2505.466797 C2573.441650,2499.517822 2567.259277,2494.370850 2560.275879,2488.150391 z" style="fill: rgb(255, 0, 0);"/>
  <path fill="#701717" opacity="1.000000" stroke="none" d=" M4765.546875,4303.067383 C4764.207031,4266.256836 4763.992188,4228.275391 4763.981445,4190.294434 C4763.939453,4043.023438 4763.944336,3895.752441 4764.014160,3748.481445 C4764.017578,3741.208008 4764.796387,3733.935059 4766.252930,3725.409424 C4767.520020,3730.810059 4767.948242,3737.463135 4767.949707,3744.116211 C4767.993652,3922.762207 4768.008301,4101.408203 4767.948730,4280.054199 C4767.946289,4287.335449 4767.177246,4294.616211 4765.546875,4303.067383 z"/>
  <path fill="#701717" opacity="1.000000" stroke="none" d=" M4184.739258,4305.481445 C4195.483398,4304.189941 4207.460449,4304.004395 4219.437012,4304.005859 C4399.780762,4304.026855 4580.124023,4304.072754 4762.357422,4304.223633 C4759.769043,4310.192871 4753.286621,4308.160156 4747.583984,4308.188477 C4709.596680,4308.374512 4671.607422,4308.297363 4633.619141,4308.295898 C4492.328125,4308.290527 4351.037598,4308.307129 4209.746582,4308.205566 C4201.821289,4308.199707 4193.896484,4307.207520 4184.739258,4305.481445 z"/>
</svg>